<svg width="133" height="38" viewBox="0 0 133 38" fill="none" xmlns="http://www.w3.org/2000/svg">
<path d="M24.246 6.298C24.638 6.214 25.0627 6.158 25.52 6.13C25.9867 6.09267 26.444 6.074 26.892 6.074C27.368 6.074 27.8487 6.116 28.334 6.2C28.8287 6.284 29.2767 6.438 29.678 6.662C30.0793 6.886 30.406 7.19867 30.658 7.6C30.9193 7.992 31.05 8.50067 31.05 9.126C31.05 9.714 30.9333 10.218 30.7 10.638C30.4667 11.0487 30.154 11.3847 29.762 11.646C29.3793 11.9073 28.936 12.0987 28.432 12.22C27.9373 12.3413 27.424 12.402 26.892 12.402C26.836 12.402 26.7473 12.402 26.626 12.402C26.514 12.3927 26.3927 12.388 26.262 12.388C26.1407 12.3787 26.0193 12.3693 25.898 12.36C25.786 12.3507 25.702 12.3413 25.646 12.332V16H24.246V6.298ZM26.934 7.278C26.682 7.278 26.4347 7.28267 26.192 7.292C25.9587 7.30133 25.7767 7.32467 25.646 7.362V11.128C25.6927 11.1467 25.7673 11.1607 25.87 11.17C25.982 11.17 26.094 11.1747 26.206 11.184C26.3273 11.1933 26.4393 11.198 26.542 11.198C26.654 11.198 26.738 11.198 26.794 11.198C27.13 11.198 27.4613 11.1747 27.788 11.128C28.1147 11.072 28.4087 10.9693 28.67 10.82C28.9407 10.6707 29.1553 10.4607 29.314 10.19C29.482 9.91933 29.566 9.56933 29.566 9.14C29.566 8.76667 29.4867 8.45867 29.328 8.216C29.1693 7.97333 28.964 7.782 28.712 7.642C28.46 7.502 28.1753 7.40867 27.858 7.362C27.55 7.306 27.242 7.278 26.934 7.278ZM31.9338 12.332C31.9338 11.7253 32.0131 11.184 32.1718 10.708C32.3304 10.2227 32.5638 9.812 32.8718 9.476C33.1798 9.14 33.5531 8.88333 33.9918 8.706C34.4398 8.52867 34.9484 8.44 35.5178 8.44C36.1151 8.44 36.6378 8.538 37.0858 8.734C37.5338 8.93 37.9071 9.20533 38.2058 9.56C38.5044 9.90533 38.7238 10.316 38.8638 10.792C39.0131 11.2587 39.0878 11.772 39.0878 12.332C39.0878 12.9293 39.0038 13.466 38.8358 13.942C38.6771 14.418 38.4438 14.824 38.1358 15.16C37.8371 15.496 37.4638 15.7527 37.0158 15.93C36.5771 16.1073 36.0778 16.196 35.5178 16.196C34.9018 16.196 34.3698 16.098 33.9218 15.902C33.4738 15.706 33.1004 15.4353 32.8018 15.09C32.5124 14.7447 32.2931 14.3387 32.1438 13.872C32.0038 13.396 31.9338 12.8827 31.9338 12.332ZM33.3058 12.332C33.3058 12.6773 33.3431 13.018 33.4178 13.354C33.5018 13.6807 33.6324 13.9747 33.8098 14.236C33.9871 14.4973 34.2158 14.7073 34.4958 14.866C34.7758 15.0247 35.1211 15.104 35.5318 15.104C36.9878 15.104 37.7158 14.18 37.7158 12.332C37.7158 11.968 37.6738 11.618 37.5898 11.282C37.5151 10.946 37.3891 10.652 37.2118 10.4C37.0438 10.1387 36.8198 9.92867 36.5398 9.77C36.2598 9.61133 35.9238 9.532 35.5318 9.532C34.8038 9.532 34.2484 9.76533 33.8658 10.232C33.4924 10.6893 33.3058 11.3893 33.3058 12.332ZM46.7018 15.496C46.3751 15.7293 45.9924 15.902 45.5538 16.014C45.1151 16.1353 44.6531 16.196 44.1678 16.196C43.5518 16.196 43.0244 16.1027 42.5858 15.916C42.1564 15.7293 41.8064 15.468 41.5358 15.132C41.2651 14.796 41.0691 14.39 40.9478 13.914C40.8264 13.438 40.7658 12.9107 40.7658 12.332C40.7658 11.0907 41.0644 10.134 41.6618 9.462C42.2684 8.78067 43.1364 8.44 44.2658 8.44C44.7604 8.44 45.1898 8.48667 45.5538 8.58C45.9178 8.664 46.2444 8.77133 46.5338 8.902L46.1978 9.952C45.9458 9.82133 45.6704 9.71867 45.3718 9.644C45.0824 9.56933 44.7651 9.532 44.4198 9.532C42.8984 9.532 42.1378 10.4653 42.1378 12.332C42.1378 12.6867 42.1798 13.032 42.2638 13.368C42.3478 13.6947 42.4831 13.9887 42.6698 14.25C42.8564 14.502 43.0991 14.7073 43.3978 14.866C43.7058 15.0247 44.0791 15.104 44.5178 15.104C44.9098 15.104 45.2504 15.0527 45.5398 14.95C45.8384 14.838 46.0858 14.7073 46.2818 14.558L46.7018 15.496ZM53.5012 9.742H50.9532V16H49.6652V9.742H47.1172V8.65H53.5012V9.742ZM54.1232 12.332C54.1232 11.7253 54.2025 11.184 54.3612 10.708C54.5199 10.2227 54.7532 9.812 55.0612 9.476C55.3692 9.14 55.7425 8.88333 56.1812 8.706C56.6292 8.52867 57.1379 8.44 57.7072 8.44C58.3045 8.44 58.8272 8.538 59.2752 8.734C59.7232 8.93 60.0965 9.20533 60.3952 9.56C60.6939 9.90533 60.9132 10.316 61.0532 10.792C61.2025 11.2587 61.2772 11.772 61.2772 12.332C61.2772 12.9293 61.1932 13.466 61.0252 13.942C60.8665 14.418 60.6332 14.824 60.3252 15.16C60.0265 15.496 59.6532 15.7527 59.2052 15.93C58.7665 16.1073 58.2672 16.196 57.7072 16.196C57.0912 16.196 56.5592 16.098 56.1112 15.902C55.6632 15.706 55.2899 15.4353 54.9912 15.09C54.7019 14.7447 54.4825 14.3387 54.3332 13.872C54.1932 13.396 54.1232 12.8827 54.1232 12.332ZM55.4952 12.332C55.4952 12.6773 55.5325 13.018 55.6072 13.354C55.6912 13.6807 55.8219 13.9747 55.9992 14.236C56.1765 14.4973 56.4052 14.7073 56.6852 14.866C56.9652 15.0247 57.3105 15.104 57.7212 15.104C59.1772 15.104 59.9052 14.18 59.9052 12.332C59.9052 11.968 59.8632 11.618 59.7792 11.282C59.7045 10.946 59.5785 10.652 59.4012 10.4C59.2332 10.1387 59.0092 9.92867 58.7292 9.77C58.4492 9.61133 58.1132 9.532 57.7212 9.532C56.9932 9.532 56.4379 9.76533 56.0552 10.232C55.6819 10.6893 55.4952 11.3893 55.4952 12.332ZM63.3472 8.65L63.8792 8.622C64.1779 8.60333 64.5046 8.58467 64.8592 8.566C65.2139 8.538 65.6246 8.524 66.0912 8.524C67.1739 8.524 67.9486 8.678 68.4152 8.986C68.8912 9.28467 69.1292 9.73267 69.1292 10.33C69.1292 10.6567 69.0126 10.988 68.7792 11.324C68.5552 11.6507 68.1959 11.8887 67.7012 12.038V12.192C68.3172 12.3133 68.7559 12.5187 69.0172 12.808C69.2879 13.0973 69.4232 13.48 69.4232 13.956C69.4232 14.6933 69.1199 15.2393 68.5132 15.594C67.9066 15.9393 66.9919 16.112 65.7692 16.112C65.3586 16.112 64.9712 16.098 64.6072 16.07C64.2432 16.0513 63.8886 16.028 63.5432 16C63.5059 16 63.4732 16 63.4452 16C63.4172 15.9907 63.3846 15.986 63.3472 15.986V8.65ZM64.6352 14.992C64.8406 15.02 65.0412 15.0433 65.2372 15.062C65.4332 15.0713 65.6759 15.076 65.9652 15.076C66.7026 15.076 67.2346 14.9827 67.5612 14.796C67.8879 14.6 68.0512 14.2827 68.0512 13.844C68.0512 13.6667 68.0186 13.5033 67.9532 13.354C67.8879 13.2047 67.7806 13.0787 67.6312 12.976C67.4819 12.8733 67.2766 12.794 67.0152 12.738C66.7632 12.6727 66.4506 12.64 66.0772 12.64H64.6352V14.992ZM66.2312 11.758C66.4366 11.758 66.6326 11.73 66.8192 11.674C67.0059 11.618 67.1739 11.5387 67.3232 11.436C67.4726 11.3333 67.5892 11.2167 67.6732 11.086C67.7666 10.946 67.8132 10.7967 67.8132 10.638C67.8132 10.246 67.6779 9.97533 67.4072 9.826C67.1459 9.66733 66.6932 9.588 66.0492 9.588C65.8346 9.588 65.6152 9.59733 65.3912 9.616C65.1766 9.62533 64.9246 9.63467 64.6352 9.644V11.758H66.2312ZM71.1597 11.352H74.8837V12.556H71.1597V11.352ZM81.9894 12.794H78.2934V16H77.0054V8.65H78.2934V11.646H81.9894V8.65H83.2774V16H81.9894V12.794ZM85.6578 9.112C86.4978 8.71067 87.5384 8.51 88.7798 8.51C89.3398 8.51 89.7878 8.58467 90.1238 8.734C90.4691 8.874 90.7351 9.056 90.9218 9.28C91.1084 9.504 91.2298 9.756 91.2858 10.036C91.3511 10.3067 91.3838 10.5773 91.3838 10.848C91.3838 11.3613 91.3651 11.8793 91.3278 12.402C91.2904 12.9153 91.2718 13.4753 91.2718 14.082C91.2718 14.4367 91.2858 14.782 91.3138 15.118C91.3511 15.4447 91.4071 15.748 91.4818 16.028H90.5438L90.1938 14.908H90.0538C89.9511 15.048 89.8251 15.1927 89.6758 15.342C89.5264 15.482 89.3491 15.608 89.1438 15.72C88.9384 15.832 88.7004 15.9253 88.4298 16C88.1684 16.0747 87.8651 16.112 87.5198 16.112C87.1744 16.112 86.8571 16.0653 86.5678 15.972C86.2784 15.8693 86.0264 15.7293 85.8118 15.552C85.6064 15.3747 85.4431 15.16 85.3218 14.908C85.2004 14.6467 85.1398 14.3573 85.1398 14.04C85.1398 13.62 85.2284 13.256 85.4058 12.948C85.5924 12.64 85.8304 12.388 86.1198 12.192C86.4091 11.996 86.7358 11.8513 87.0998 11.758C87.4731 11.6647 87.8418 11.618 88.2058 11.618C88.4951 11.618 88.7378 11.6227 88.9338 11.632C89.1391 11.6413 89.3071 11.6553 89.4378 11.674C89.5778 11.6833 89.6944 11.6973 89.7878 11.716C89.8811 11.7253 89.9651 11.7347 90.0398 11.744C90.0584 11.604 90.0724 11.4827 90.0818 11.38C90.0911 11.2773 90.0958 11.1467 90.0958 10.988C90.0958 10.7267 90.0678 10.5073 90.0118 10.33C89.9558 10.1527 89.8624 10.0127 89.7318 9.91C89.6104 9.798 89.4424 9.71867 89.2278 9.672C89.0131 9.62533 88.7518 9.602 88.4438 9.602C88.2664 9.602 88.0704 9.616 87.8558 9.644C87.6411 9.672 87.4264 9.714 87.2118 9.77C86.9971 9.81667 86.7824 9.87733 86.5678 9.952C86.3624 10.0267 86.1758 10.106 86.0078 10.19L85.6578 9.112ZM90.0398 12.668C89.9651 12.6587 89.8858 12.6447 89.8018 12.626C89.7178 12.6073 89.6104 12.5933 89.4798 12.584C89.3584 12.5747 89.2091 12.5653 89.0318 12.556C88.8638 12.5467 88.6538 12.542 88.4018 12.542C87.8231 12.542 87.3611 12.6447 87.0158 12.85C86.6798 13.0553 86.5118 13.4053 86.5118 13.9C86.5118 14.2733 86.6424 14.5533 86.9038 14.74C87.1744 14.9267 87.5198 15.02 87.9398 15.02C88.2478 15.02 88.5184 14.9827 88.7518 14.908C88.9944 14.824 89.1998 14.726 89.3678 14.614C89.5451 14.4927 89.6851 14.362 89.7878 14.222C89.8998 14.0727 89.9838 13.928 90.0398 13.788V12.668ZM93.5542 11.352H97.2782V12.556H93.5542V11.352ZM107.396 17.792H106.43L106.192 16H98.7444L98.5204 17.792H97.5544V14.768H98.6464C98.7304 14.6653 98.8564 14.432 99.0244 14.068C99.2017 13.6947 99.3744 13.1673 99.5424 12.486C99.7197 11.7953 99.869 10.932 99.9904 9.896C100.112 8.86 100.168 7.628 100.158 6.2H105.996V14.768H107.396V17.792ZM104.596 14.768V7.432H101.446C101.409 8.42133 101.348 9.308 101.264 10.092C101.19 10.8667 101.092 11.5527 100.97 12.15C100.858 12.7473 100.728 13.2607 100.578 13.69C100.438 14.1193 100.289 14.4787 100.13 14.768H104.596ZM108.305 12.332C108.305 11.7253 108.384 11.184 108.543 10.708C108.702 10.2227 108.935 9.812 109.243 9.476C109.551 9.14 109.924 8.88333 110.363 8.706C110.811 8.52867 111.32 8.44 111.889 8.44C112.486 8.44 113.009 8.538 113.457 8.734C113.905 8.93 114.278 9.20533 114.577 9.56C114.876 9.90533 115.095 10.316 115.235 10.792C115.384 11.2587 115.459 11.772 115.459 12.332C115.459 12.9293 115.375 13.466 115.207 13.942C115.048 14.418 114.815 14.824 114.507 15.16C114.208 15.496 113.835 15.7527 113.387 15.93C112.948 16.1073 112.449 16.196 111.889 16.196C111.273 16.196 110.741 16.098 110.293 15.902C109.845 15.706 109.472 15.4353 109.173 15.09C108.884 14.7447 108.664 14.3387 108.515 13.872C108.375 13.396 108.305 12.8827 108.305 12.332ZM109.677 12.332C109.677 12.6773 109.714 13.018 109.789 13.354C109.873 13.6807 110.004 13.9747 110.181 14.236C110.358 14.4973 110.587 14.7073 110.867 14.866C111.147 15.0247 111.492 15.104 111.903 15.104C113.359 15.104 114.087 14.18 114.087 12.332C114.087 11.968 114.045 11.618 113.961 11.282C113.886 10.946 113.76 10.652 113.583 10.4C113.415 10.1387 113.191 9.92867 112.911 9.77C112.631 9.61133 112.295 9.532 111.903 9.532C111.175 9.532 110.62 9.76533 110.237 10.232C109.864 10.6893 109.677 11.3893 109.677 12.332ZM122.513 12.794H118.817V16H117.529V8.65H118.817V11.646H122.513V8.65H123.801V16H122.513V12.794ZM128.547 13.298L128.981 14.712H129.163L129.513 13.284L131.039 8.65H132.355L129.947 15.3C129.77 15.7573 129.588 16.2007 129.401 16.63C129.224 17.0593 129.023 17.4373 128.799 17.764C128.585 18.1 128.342 18.366 128.071 18.562C127.81 18.7673 127.507 18.87 127.161 18.87C126.788 18.87 126.471 18.828 126.209 18.744L126.419 17.652C126.559 17.6987 126.699 17.722 126.839 17.722C127.026 17.722 127.194 17.6987 127.343 17.652C127.502 17.6053 127.647 17.5213 127.777 17.4C127.908 17.2787 128.025 17.106 128.127 16.882C128.239 16.6673 128.342 16.3873 128.435 16.042L125.145 8.65H126.671L128.547 13.298Z" fill="#364844"/>
<path d="M26.514 30.298L26.948 31.712H27.13L27.48 30.284L29.006 25.65H30.322L27.914 32.3C27.7367 32.7573 27.5547 33.2007 27.368 33.63C27.1907 34.0593 26.99 34.4373 26.766 34.764C26.5513 35.1 26.3087 35.366 26.038 35.562C25.7767 35.7673 25.4733 35.87 25.128 35.87C24.7547 35.87 24.4373 35.828 24.176 35.744L24.386 34.652C24.526 34.6987 24.666 34.722 24.806 34.722C24.9927 34.722 25.1607 34.6987 25.31 34.652C25.4687 34.6053 25.6133 34.5213 25.744 34.4C25.8747 34.2787 25.9913 34.106 26.094 33.882C26.206 33.6673 26.3087 33.3873 26.402 33.042L23.112 25.65H24.638L26.514 30.298ZM35.9021 26.742H33.5221L33.4941 27.162C33.4288 28.086 33.3494 28.9167 33.2561 29.654C33.1721 30.382 33.0461 31.0027 32.8781 31.516C32.7101 32.02 32.4861 32.4073 32.2061 32.678C31.9261 32.9393 31.5621 33.07 31.1141 33.07C30.9088 33.07 30.7268 33.056 30.5681 33.028C30.4094 33.0093 30.2741 32.9767 30.1621 32.93L30.3581 31.754C30.4794 31.7913 30.6148 31.81 30.7641 31.81C30.9881 31.81 31.1888 31.7307 31.3661 31.572C31.5434 31.404 31.6974 31.096 31.8281 30.648C31.9588 30.2 32.0661 29.5747 32.1501 28.772C32.2341 27.9693 32.2948 26.9287 32.3321 25.65H37.1901V33H35.9021V26.742ZM39.1499 32.286C39.1499 32.0153 39.2339 31.8007 39.4019 31.642C39.5792 31.4833 39.8079 31.404 40.0879 31.404C40.3679 31.404 40.5919 31.4833 40.7599 31.642C40.9372 31.8007 41.0259 32.0153 41.0259 32.286C41.0259 32.538 40.9372 32.748 40.7599 32.916C40.5919 33.084 40.3679 33.168 40.0879 33.168C39.8079 33.168 39.5792 33.084 39.4019 32.916C39.2339 32.748 39.1499 32.538 39.1499 32.286ZM52.3242 24.432H49.2442C49.1975 25.356 49.1415 26.196 49.0762 26.952C49.0202 27.708 48.9455 28.394 48.8522 29.01C48.7589 29.6167 48.6469 30.1533 48.5162 30.62C48.3949 31.0867 48.2409 31.4927 48.0542 31.838C47.8115 32.286 47.5315 32.6033 47.2142 32.79C46.8969 32.9767 46.5655 33.07 46.2202 33.07C46.0242 33.07 45.8609 33.056 45.7302 33.028C45.6089 33.0093 45.4829 32.9767 45.3522 32.93L45.5342 31.754C45.6462 31.782 45.7582 31.796 45.8702 31.796C45.9822 31.796 46.0942 31.7773 46.2062 31.74C46.3275 31.6933 46.4442 31.6233 46.5562 31.53C46.6682 31.4273 46.7755 31.2873 46.8782 31.11C47.0182 30.8673 47.1489 30.5407 47.2702 30.13C47.3915 29.7193 47.4989 29.1967 47.5922 28.562C47.6855 27.9273 47.7602 27.1713 47.8162 26.294C47.8815 25.4073 47.9282 24.376 47.9562 23.2H53.7242V33H52.3242V24.432ZM62.1748 32.398C61.8482 32.6407 61.4422 32.8367 60.9568 32.986C60.4715 33.126 59.9442 33.196 59.3748 33.196C58.7588 33.196 58.2222 33.1073 57.7648 32.93C57.3168 32.7433 56.9482 32.482 56.6588 32.146C56.3695 31.81 56.1548 31.404 56.0148 30.928C55.8748 30.452 55.8048 29.92 55.8048 29.332C55.8048 28.072 56.1128 27.1107 56.7288 26.448C57.3542 25.776 58.2408 25.44 59.3888 25.44C59.7528 25.44 60.1168 25.482 60.4808 25.566C60.8448 25.6407 61.1715 25.79 61.4608 26.014C61.7502 26.2287 61.9835 26.5273 62.1608 26.91C62.3475 27.2927 62.4408 27.792 62.4408 28.408C62.4408 28.5573 62.4362 28.73 62.4268 28.926C62.4175 29.122 62.3988 29.3133 62.3708 29.5H57.1208C57.1395 30.3587 57.3448 31.0073 57.7368 31.446C58.1288 31.8847 58.7962 32.104 59.7388 32.104C60.1308 32.104 60.5042 32.0387 60.8588 31.908C61.2135 31.768 61.4888 31.6047 61.6848 31.418L62.1748 32.398ZM61.2088 28.576C61.2275 27.8293 61.0735 27.302 60.7468 26.994C60.4295 26.686 59.9815 26.532 59.4028 26.532C58.7495 26.532 58.2315 26.686 57.8488 26.994C57.4662 27.302 57.2422 27.8293 57.1768 28.576H61.2088ZM69.548 29.794H65.852V33H64.564V25.65H65.852V28.646H69.548V25.65H70.836V33H69.548V29.794ZM78.3824 28.8L78.5784 27.344H78.4244L77.7384 28.716L74.2944 33H73.3004V25.65H74.5884V29.99L74.4904 31.278H74.6444L75.2884 30.032L78.6624 25.65H79.6704V33H78.3824V28.8ZM87.1164 29.794H83.4204V33H82.1324V25.65H83.4204V28.646H87.1164V25.65H88.4044V33H87.1164V29.794ZM90.7847 26.112C91.6247 25.7107 92.6654 25.51 93.9067 25.51C94.4667 25.51 94.9147 25.5847 95.2507 25.734C95.5961 25.874 95.8621 26.056 96.0487 26.28C96.2354 26.504 96.3567 26.756 96.4127 27.036C96.4781 27.3067 96.5107 27.5773 96.5107 27.848C96.5107 28.3613 96.4921 28.8793 96.4547 29.402C96.4174 29.9153 96.3987 30.4753 96.3987 31.082C96.3987 31.4367 96.4127 31.782 96.4407 32.118C96.4781 32.4447 96.5341 32.748 96.6087 33.028H95.6707L95.3207 31.908H95.1807C95.0781 32.048 94.9521 32.1927 94.8027 32.342C94.6534 32.482 94.4761 32.608 94.2707 32.72C94.0654 32.832 93.8274 32.9253 93.5567 33C93.2954 33.0747 92.9921 33.112 92.6467 33.112C92.3014 33.112 91.9841 33.0653 91.6947 32.972C91.4054 32.8693 91.1534 32.7293 90.9387 32.552C90.7334 32.3747 90.5701 32.16 90.4487 31.908C90.3274 31.6467 90.2667 31.3573 90.2667 31.04C90.2667 30.62 90.3554 30.256 90.5327 29.948C90.7194 29.64 90.9574 29.388 91.2467 29.192C91.5361 28.996 91.8627 28.8513 92.2267 28.758C92.6001 28.6647 92.9687 28.618 93.3327 28.618C93.6221 28.618 93.8647 28.6227 94.0607 28.632C94.2661 28.6413 94.4341 28.6553 94.5647 28.674C94.7047 28.6833 94.8214 28.6973 94.9147 28.716C95.0081 28.7253 95.0921 28.7347 95.1667 28.744C95.1854 28.604 95.1994 28.4827 95.2087 28.38C95.2181 28.2773 95.2227 28.1467 95.2227 27.988C95.2227 27.7267 95.1947 27.5073 95.1387 27.33C95.0827 27.1527 94.9894 27.0127 94.8587 26.91C94.7374 26.798 94.5694 26.7187 94.3547 26.672C94.1401 26.6253 93.8787 26.602 93.5707 26.602C93.3934 26.602 93.1974 26.616 92.9827 26.644C92.7681 26.672 92.5534 26.714 92.3387 26.77C92.1241 26.8167 91.9094 26.8773 91.6947 26.952C91.4894 27.0267 91.3027 27.106 91.1347 27.19L90.7847 26.112ZM95.1667 29.668C95.0921 29.6587 95.0127 29.6447 94.9287 29.626C94.8447 29.6073 94.7374 29.5933 94.6067 29.584C94.4854 29.5747 94.3361 29.5653 94.1587 29.556C93.9907 29.5467 93.7807 29.542 93.5287 29.542C92.9501 29.542 92.4881 29.6447 92.1427 29.85C91.8067 30.0553 91.6387 30.4053 91.6387 30.9C91.6387 31.2733 91.7694 31.5533 92.0307 31.74C92.3014 31.9267 92.6467 32.02 93.0667 32.02C93.3747 32.02 93.6454 31.9827 93.8787 31.908C94.1214 31.824 94.3267 31.726 94.4947 31.614C94.6721 31.4927 94.8121 31.362 94.9147 31.222C95.0267 31.0727 95.1107 30.928 95.1667 30.788V29.668ZM98.6112 32.342C98.6112 32.0993 98.6998 31.9033 98.8772 31.754C99.0545 31.5953 99.2692 31.516 99.5212 31.516C99.8478 31.516 100.114 31.628 100.319 31.852C100.524 32.0667 100.627 32.37 100.627 32.762C100.627 33.126 100.571 33.4387 100.459 33.7C100.356 33.9707 100.221 34.1993 100.053 34.386C99.8852 34.582 99.6985 34.736 99.4932 34.848C99.2972 34.96 99.1012 35.044 98.9052 35.1L98.5132 34.456C98.8678 34.3347 99.1338 34.1387 99.3112 33.868C99.4978 33.6067 99.5865 33.3407 99.5772 33.07C99.3252 33.1447 99.1012 33.1167 98.9052 32.986C98.7092 32.8553 98.6112 32.6407 98.6112 32.342ZM111.426 25.496C111.426 25.972 111.328 26.462 111.132 26.966C110.936 27.4607 110.679 27.9553 110.362 28.45C110.054 28.9447 109.704 29.4347 109.312 29.92C108.929 30.4053 108.542 30.872 108.15 31.32L107.394 31.922V31.978L108.402 31.824H111.664V33H105.49V32.496C105.714 32.2813 105.98 32.02 106.288 31.712C106.605 31.3947 106.932 31.0493 107.268 30.676C107.613 30.2933 107.949 29.892 108.276 29.472C108.612 29.052 108.911 28.6273 109.172 28.198C109.433 27.7593 109.643 27.33 109.802 26.91C109.97 26.49 110.054 26.0933 110.054 25.72C110.054 25.2813 109.919 24.9173 109.648 24.628C109.377 24.3387 108.962 24.194 108.402 24.194C108.01 24.194 107.632 24.2687 107.268 24.418C106.904 24.5673 106.591 24.7493 106.33 24.964L105.756 24.026C106.139 23.718 106.573 23.4753 107.058 23.298C107.543 23.1113 108.08 23.018 108.668 23.018C109.536 23.018 110.213 23.2467 110.698 23.704C111.183 24.152 111.426 24.7493 111.426 25.496ZM114.139 23.2H120.075V24.432H115.539V27.092C115.707 27.064 115.912 27.036 116.155 27.008C116.407 26.98 116.654 26.966 116.897 26.966C117.419 26.966 117.914 27.0127 118.381 27.106C118.857 27.1993 119.272 27.358 119.627 27.582C119.991 27.806 120.28 28.1047 120.495 28.478C120.709 28.8513 120.817 29.318 120.817 29.878C120.817 30.438 120.705 30.9233 120.481 31.334C120.266 31.7353 119.977 32.0713 119.613 32.342C119.249 32.6033 118.824 32.7993 118.339 32.93C117.853 33.0607 117.345 33.126 116.813 33.126C116.645 33.126 116.444 33.1213 116.211 33.112C115.987 33.112 115.753 33.1027 115.511 33.084C115.268 33.0653 115.025 33.042 114.783 33.014C114.549 32.986 114.335 32.9487 114.139 32.902V23.2ZM116.981 31.922C117.298 31.922 117.597 31.8847 117.877 31.81C118.166 31.7353 118.418 31.6233 118.633 31.474C118.847 31.3153 119.015 31.1193 119.137 30.886C119.267 30.6527 119.333 30.3773 119.333 30.06C119.333 29.6493 119.263 29.3227 119.123 29.08C118.983 28.828 118.791 28.6367 118.549 28.506C118.315 28.366 118.04 28.2773 117.723 28.24C117.415 28.1933 117.093 28.17 116.757 28.17C116.663 28.17 116.556 28.1747 116.435 28.184C116.323 28.1933 116.206 28.2027 116.085 28.212C115.963 28.2213 115.851 28.2353 115.749 28.254C115.655 28.2727 115.585 28.2867 115.539 28.296V31.838C115.604 31.8567 115.693 31.8707 115.805 31.88C115.917 31.8893 116.038 31.8987 116.169 31.908C116.299 31.9173 116.435 31.922 116.575 31.922C116.715 31.922 116.85 31.922 116.981 31.922Z" fill="#868686"/>
<path d="M9.8304 0.615234C6.23672 0.615234 3.31299 3.53897 3.31299 7.13264C3.31299 11.6495 9.83681 19.3652 9.83681 19.3652C9.83681 19.3652 16.3478 11.4274 16.3478 7.13264C16.3478 3.53897 13.4242 0.615234 9.8304 0.615234ZM11.7968 9.04095C11.2546 9.58305 10.5426 9.85416 9.8304 9.85416C9.11835 9.85416 8.40607 9.58305 7.86407 9.04095C6.77975 7.95673 6.77975 6.19251 7.86407 5.10818C8.38913 4.5829 9.08756 4.29359 9.8304 4.29359C10.5732 4.29359 11.2716 4.58301 11.7968 5.10818C12.8812 6.19251 12.8812 7.95673 11.7968 9.04095Z" fill="#E1E1E1"/>
</svg>
